<?xml version="1.0" encoding="UTF-8" standalone="no"?>
<!DOCTYPE svg PUBLIC "-//W3C//DTD SVG 1.1//EN" "http://www.w3.org/Graphics/SVG/1.1/DTD/svg11.dtd">
<svg width="100%" height="100%" viewBox="0 0 3338 2088" version="1.1" xmlns="http://www.w3.org/2000/svg" xmlns:xlink="http://www.w3.org/1999/xlink" xml:space="preserve" xmlns:serif="http://www.serif.com/" style="fill-rule:evenodd;clip-rule:evenodd;stroke-linejoin:round;stroke-miterlimit:2;">
    <g transform="matrix(4.16667,0,0,4.16667,0,0)">
        <path d="M18.32,74.57C32.828,77.707 47.043,84.421 60.349,93.69C63.238,96.276 66.367,98.643 69.709,100.763C115.777,138.294 147.963,206.026 136.713,258.144L136.729,258.135C129.151,293.02 148.582,328.881 183.143,340.963C220.539,354.035 261.433,334.316 274.506,296.929C277.402,288.628 278.688,280.145 278.514,271.828C278.445,250.045 279.912,246.412 295.094,230.796C311.313,214.699 319.432,191 315.092,167.135L315.1,167.143C312.205,151.147 314.578,140.332 323.129,133.388C331.311,129.61 340.406,126.322 350.492,123.566L350.484,123.562C372.434,117.525 391.16,101.183 399.242,78.066C409.088,49.899 400.301,19.75 379.381,0.999L0,0.999L0,67.927C5.625,70.879 11.763,73.144 18.334,74.57L18.32,74.57Z" style="fill:url(#_Linear1);"/>
        <g transform="matrix(1,0,0,1,-22.5701,-220.168)">
            <path d="M81.843,367.701C67.009,377.296 62.761,397.098 72.347,411.932C81.943,426.772 101.752,431.022 116.586,421.428C131.42,411.841 135.67,392.031 126.082,377.197C116.488,362.363 96.677,358.106 81.843,367.701Z" style="fill:url(#_Linear2);"/>
        </g>
        <path d="M33.086,26.593C33.086,29.028 31.111,31 28.677,31C26.242,31 24.269,29.028 24.269,26.593C24.269,24.159 26.242,22.185 28.677,22.185C31.111,22.185 33.086,24.159 33.086,26.593Z" style="fill:white;fill-rule:nonzero;"/>
        <path d="M33.086,45.359C33.086,47.793 31.111,49.77 28.677,49.77C26.242,49.77 24.269,47.793 24.269,45.359C24.269,42.924 26.242,40.951 28.677,40.951C31.111,40.951 33.086,42.924 33.086,45.359Z" style="fill:white;fill-rule:nonzero;"/>
        <path d="M33.086,64.128C33.086,66.563 31.111,68.536 28.677,68.536C26.242,68.536 24.269,66.563 24.269,64.128C24.269,61.69 26.242,59.716 28.677,59.716C31.111,59.716 33.086,61.69 33.086,64.128Z" style="fill:white;fill-rule:nonzero;"/>
        <path d="M49.697,26.593C49.697,29.028 47.722,31 45.289,31C42.853,31 40.88,29.028 40.88,26.593C40.88,24.159 42.853,22.185 45.289,22.185C47.722,22.185 49.697,24.159 49.697,26.593Z" style="fill:white;fill-rule:nonzero;"/>
        <path d="M49.697,45.359C49.697,47.793 47.722,49.77 45.289,49.77C42.853,49.77 40.88,47.793 40.88,45.359C40.88,42.924 42.853,40.951 45.289,40.951C47.722,40.951 49.697,42.924 49.697,45.359Z" style="fill:white;fill-rule:nonzero;"/>
        <g transform="matrix(1,0,0,1,-16.4605,69.4058)">
            <path d="M49.697,64.128C49.697,66.563 47.722,68.536 45.289,68.536C42.853,68.536 40.88,66.563 40.88,64.128C40.88,61.69 42.853,59.716 45.289,59.716C47.722,59.716 49.697,61.69 49.697,64.128Z" style="fill:rgb(109,0,255);fill-rule:nonzero;"/>
        </g>
        <path d="M66.306,26.593C66.306,29.028 64.334,31 61.9,31C59.464,31 57.492,29.028 57.492,26.593C57.492,24.159 59.464,22.185 61.9,22.185C64.334,22.185 66.306,24.159 66.306,26.593Z" style="fill:white;fill-rule:nonzero;"/>
        <path d="M66.306,45.359C66.306,47.793 64.334,49.77 61.9,49.77C59.464,49.77 57.492,47.793 57.492,45.359C57.492,42.924 59.464,40.951 61.9,40.951C64.334,40.951 66.306,42.924 66.306,45.359Z" style="fill:white;fill-rule:nonzero;"/>
        <g transform="matrix(1,0,0,1,-33.0695,55.7291)">
            <path d="M66.306,64.128C66.306,66.563 64.334,68.536 61.9,68.536C59.464,68.536 57.492,66.563 57.492,64.128C57.492,61.69 59.464,59.716 61.9,59.716C64.334,59.716 66.306,61.69 66.306,64.128Z" style="fill:rgb(109,0,255);fill-rule:nonzero;"/>
        </g>
        <path d="M82.918,26.593C82.918,29.028 80.945,31 78.509,31C76.076,31 74.101,29.028 74.101,26.593C74.101,24.159 76.076,22.185 78.509,22.185C80.945,22.185 82.918,24.159 82.918,26.593Z" style="fill:white;fill-rule:nonzero;"/>
        <g transform="matrix(1,0,0,1,-32.9534,18.2242)">
            <path d="M82.918,45.359C82.918,47.793 80.945,49.77 78.509,49.77C76.076,49.77 74.101,47.793 74.101,45.359C74.101,42.924 76.076,40.951 78.509,40.951C80.945,40.951 82.918,42.924 82.918,45.359Z" style="fill:white;fill-rule:nonzero;"/>
        </g>
        <g transform="matrix(1,0,0,1,-49.6785,42.1803)">
            <path d="M82.918,64.128C82.918,66.563 80.945,68.536 78.509,68.536C76.076,68.536 74.101,66.563 74.101,64.128C74.101,61.69 76.076,59.716 78.509,59.716C80.945,59.716 82.918,61.69 82.918,64.128Z" style="fill:rgb(109,0,255);fill-rule:nonzero;"/>
        </g>
        <g transform="matrix(1,0,0,1,-66.2895,162.068)">
            <path d="M99.529,26.593C99.529,29.028 97.556,31 95.121,31C92.679,31 90.712,29.028 90.712,26.593C90.712,24.159 92.679,22.185 95.121,22.185C97.556,22.185 99.529,24.159 99.529,26.593Z" style="fill:rgb(109,0,255);fill-rule:nonzero;"/>
        </g>
        <g transform="matrix(1,0,0,1,-66.2925,162.866)">
            <path d="M99.529,45.359C99.529,47.793 97.556,49.77 95.121,49.77C92.679,49.77 90.712,47.793 90.712,45.359C90.712,42.924 92.679,40.951 95.121,40.951C97.556,40.951 99.529,42.924 99.529,45.359Z" style="fill:rgb(109,0,255);fill-rule:nonzero;"/>
        </g>
        <g transform="matrix(1,0,0,1,-66.2865,28.1202)">
            <path d="M99.529,64.128C99.529,66.563 97.556,68.536 95.121,68.536C92.679,68.536 90.712,66.563 90.712,64.128C90.712,61.69 92.679,59.716 95.121,59.716C97.556,59.716 99.529,61.69 99.529,64.128Z" style="fill:rgb(109,0,255);fill-rule:nonzero;"/>
        </g>
        <g transform="matrix(1,0,0,1,-82.8965,123.263)">
            <path d="M116.133,26.593C116.133,29.028 114.158,31 111.725,31C109.289,31 107.316,29.028 107.316,26.593C107.316,24.159 109.289,22.185 111.725,22.185C114.158,22.185 116.133,24.159 116.133,26.593Z" style="fill:rgb(109,0,255);fill-rule:nonzero;"/>
        </g>
        <g transform="matrix(1,0,0,1,-82.8965,123.263)">
            <path d="M116.133,45.359C116.133,47.793 114.158,49.77 111.725,49.77C109.289,49.77 107.316,47.793 107.316,45.359C107.316,42.924 109.289,40.951 111.725,40.951C114.158,40.951 116.133,42.924 116.133,45.359Z" style="fill:rgb(109,0,255);fill-rule:nonzero;"/>
        </g>
        <g transform="matrix(1,0,0,1,-82.8905,15.8467)">
            <path d="M116.133,64.128C116.133,66.563 114.158,68.536 111.725,68.536C109.289,68.536 107.316,66.563 107.316,64.128C107.316,61.69 109.289,59.716 111.725,59.716C114.158,59.716 116.133,61.69 116.133,64.128Z" style="fill:white;fill-rule:nonzero;"/>
        </g>
    </g>
    <defs>
        <linearGradient id="_Linear1" x1="0" y1="0" x2="1" y2="0" gradientUnits="userSpaceOnUse" gradientTransform="matrix(336.778,190.063,-190.063,336.778,-5.09487,10.0267)"><stop offset="0" style="stop-color:rgb(113,202,195);stop-opacity:1"/><stop offset="0.2" style="stop-color:rgb(52,192,234);stop-opacity:1"/><stop offset="0.4" style="stop-color:rgb(101,125,190);stop-opacity:1"/><stop offset="0.5" style="stop-color:rgb(104,103,175);stop-opacity:1"/><stop offset="1" style="stop-color:rgb(134,81,161);stop-opacity:1"/></linearGradient>
        <linearGradient id="_Linear2" x1="0" y1="0" x2="1" y2="0" gradientUnits="userSpaceOnUse" gradientTransform="matrix(-55.4001,32.0128,-32.0128,-55.4001,126.915,378.558)"><stop offset="0" style="stop-color:rgb(113,202,195);stop-opacity:1"/><stop offset="0.2" style="stop-color:rgb(52,192,234);stop-opacity:1"/><stop offset="0.4" style="stop-color:rgb(101,125,190);stop-opacity:1"/><stop offset="0.5" style="stop-color:rgb(104,103,175);stop-opacity:1"/><stop offset="1" style="stop-color:rgb(134,81,161);stop-opacity:1"/></linearGradient>
    </defs>
</svg>
