<?xml version="1.0" encoding="UTF-8" standalone="no"?>
<!DOCTYPE svg PUBLIC "-//W3C//DTD SVG 1.1//EN" "http://www.w3.org/Graphics/SVG/1.1/DTD/svg11.dtd">
<svg width="100%" height="100%" viewBox="0 0 3334 2084" version="1.1" xmlns="http://www.w3.org/2000/svg" xmlns:xlink="http://www.w3.org/1999/xlink" xml:space="preserve" xmlns:serif="http://www.serif.com/" style="fill-rule:evenodd;clip-rule:evenodd;stroke-linejoin:round;stroke-miterlimit:2;">
    <g transform="matrix(4.16667,0,0,4.16667,0,0)">
        <g transform="matrix(1,0,0,1,430.662,77.9646)">
            <path d="M147.787,512.391C135.462,502.753 130.267,494.341 131.905,486.676C135.762,468.636 177.818,458.229 222.345,447.214C275.091,434.163 329.633,420.669 333.289,393.35C336.091,372.405 308.282,345.96 248.272,312.505C200.966,286.132 180.265,269.232 183.126,259.323C187.041,245.767 234.335,248.304 289.1,251.244C350.701,254.55 420.523,258.3 427.502,236.486C432.856,219.75 401.603,190.122 331.953,145.908C265.048,103.436 235.04,71.287 240.213,47.624C247.514,14.23 322.512,4.03 395.04,-5.834C456.031,-14.129 513.641,-21.965 517.677,-43.336C520.307,-57.252 500.085,-76.002 455.858,-100.659L456.224,-101.314C500.768,-76.481 521.11,-57.471 518.414,-43.197C514.276,-21.294 456.408,-13.424 395.141,-5.091C326.234,4.281 248.134,14.903 240.946,47.784C235.848,71.103 265.749,102.992 332.355,145.275C402.333,189.697 433.689,219.607 428.217,236.715C421.063,259.08 353.956,255.477 289.06,251.993C236.883,249.193 187.596,246.548 183.847,259.531C181.136,268.92 202.329,286.033 248.638,311.851C308.947,345.473 336.88,372.164 334.032,393.449C330.309,421.274 275.515,434.831 222.525,447.941C178.233,458.9 136.397,469.251 132.639,486.833C131.065,494.189 136.172,502.356 148.249,511.8L147.787,512.391Z" style="fill:rgb(157,97,168);fill-rule:nonzero;"/>
        </g>
        <g transform="matrix(1,0,0,1,430.662,77.9646)">
            <path d="M148.56,520.614C136.639,511.139 131.623,502.777 133.227,495.051C137.053,476.611 178.942,465.361 223.292,453.451C275.95,439.31 330.402,424.687 333.896,396.653C336.534,375.483 309.452,349.314 251.104,316.651C204.889,290.781 184.688,274.034 187.529,263.947C191.435,250.077 238.234,251.89 292.424,253.992C353.395,256.354 422.499,259.033 429.518,236.682C434.872,219.626 404.442,190.177 336.489,146.652C271.405,104.964 242.227,73.037 247.287,49.045C254.506,14.813 329.114,3.235 401.266,-7.962C461.916,-17.375 519.202,-26.265 523.146,-48.162C525.686,-62.264 505.985,-80.838 462.92,-104.946L463.287,-105.601C506.666,-81.317 526.487,-62.485 523.883,-48.029C519.846,-25.606 462.303,-16.676 401.38,-7.221C332.83,3.417 255.133,15.475 248.021,49.2C243.032,72.851 272.103,104.521 336.894,146.02C405.172,189.754 435.703,219.483 430.233,236.907C423.043,259.805 353.634,257.115 292.395,254.741C240.767,252.739 191.998,250.85 188.25,264.15C185.557,273.717 206.236,290.676 251.47,315.997C310.115,348.826 337.32,375.239 334.64,396.746C331.084,425.279 276.384,439.97 223.486,454.176C179.366,466.024 137.693,477.216 133.961,495.203C132.421,502.625 137.349,510.745 149.026,520.026L148.56,520.614Z" style="fill:rgb(239,67,37);fill-rule:nonzero;"/>
        </g>
        <g transform="matrix(1,0,0,1,430.662,77.9646)">
            <path d="M149.194,528.927C137.669,519.612 132.829,511.301 134.396,503.517C138.192,484.671 179.934,472.565 224.127,459.748C276.728,444.493 331.118,428.719 334.439,399.956C336.908,378.574 310.54,352.683 253.83,320.8C209.313,295.773 189.023,278.687 191.801,268.563C195.695,254.371 242.022,255.456 295.665,256.719C356.034,258.138 424.456,259.744 431.509,236.835C436.859,219.459 407.24,190.184 340.96,147.334C277.676,106.422 249.313,74.717 254.252,50.406C261.383,15.311 335.642,2.335 407.455,-10.214C467.797,-20.759 524.793,-30.718 528.634,-53.153C531.079,-67.435 511.891,-85.833 469.973,-109.4L470.34,-110.053C512.568,-86.313 531.879,-67.659 529.373,-53.026C525.442,-30.071 468.194,-20.067 407.584,-9.475C339.352,2.448 262.015,15.962 254.988,50.555C250.117,74.529 278.372,105.979 341.368,146.705C407.969,189.761 437.688,219.315 432.226,237.056C425.005,260.505 356.281,258.895 295.647,257.468C244.541,256.27 196.263,255.134 192.524,268.762C189.851,278.505 210.024,295.313 254.197,320.146C311.2,352.193 337.691,378.327 335.184,400.042C331.806,429.3 277.172,445.146 224.336,460.469C180.368,473.221 138.837,485.265 135.132,503.665C133.625,511.148 138.378,519.221 149.666,528.343L149.194,528.927Z" style="fill:rgb(138,128,58);fill-rule:nonzero;"/>
        </g>
        <g transform="matrix(1,0,0,1,430.662,77.9646)">
            <path d="M149.691,537.335C138.558,528.179 133.89,519.919 135.42,512.084C139.184,492.826 180.799,479.851 224.857,466.112C277.428,449.721 331.789,432.771 334.926,403.263C337.219,381.686 311.553,356.073 256.459,324.963C212.992,300.418 193.199,283.479 195.949,273.181C199.828,258.655 245.707,259.008 298.828,259.429C358.622,259.896 426.394,260.423 433.478,236.945C438.817,219.247 409.996,190.137 345.367,147.953C283.86,107.807 256.299,76.322 261.112,51.701C264.263,35.579 281.528,22.303 313.895,11.115C342.37,1.271 378.586,-5.778 413.611,-12.596C473.676,-24.288 530.409,-35.331 534.14,-58.315C536.485,-72.768 517.8,-90.988 477.015,-114.019L477.384,-114.672C518.474,-91.468 537.282,-72.995 534.88,-58.195C531.066,-34.695 474.083,-23.603 413.754,-11.86C345.802,1.368 268.784,16.359 261.847,51.844C257.101,76.133 284.555,107.364 345.777,147.325C410.723,189.716 439.645,219.102 434.195,237.162C426.948,261.179 358.876,260.641 298.822,260.179C248.21,259.781 200.402,259.409 196.673,273.374C194.024,283.295 213.701,299.957 256.829,324.311C312.21,355.583 338,381.436 335.671,403.343C332.482,433.341 277.883,450.365 225.081,466.829C181.242,480.498 139.834,493.409 136.157,512.228C134.683,519.768 139.267,527.791 150.168,536.755L149.691,537.335Z" style="fill:rgb(146,37,122);fill-rule:nonzero;"/>
        </g>
        <g transform="matrix(1,0,0,1,430.662,77.9646)">
            <path d="M150.041,545.834C139.292,536.837 134.792,528.631 136.287,520.75C140.017,501.074 181.523,487.216 225.467,472.544C278.042,454.99 332.406,436.839 335.349,406.566C337.464,384.808 312.487,359.478 258.993,329.129C216.561,305.059 197.255,288.267 199.973,277.793C203.83,262.928 249.28,262.553 301.906,262.119C361.157,261.63 428.313,261.076 435.425,237.009C440.75,218.988 412.713,190.039 349.713,148.506C289.962,109.117 263.19,77.855 267.868,52.934C270.971,36.407 288.15,22.574 320.389,10.644C348.753,0.148 384.835,-7.606 419.73,-15.106C479.55,-27.962 536.052,-40.105 539.662,-63.65C541.903,-78.266 523.711,-96.309 484.047,-118.811L484.417,-119.463C524.384,-96.79 542.697,-78.496 540.403,-63.536C536.715,-39.481 479.967,-27.285 419.888,-14.373C385.019,-6.878 348.963,0.871 320.649,11.348C288.679,23.178 271.655,36.826 268.605,53.072C263.989,77.664 290.655,108.675 350.126,147.88C413.438,189.618 441.575,218.842 436.145,237.221C428.875,261.822 361.424,262.378 301.912,262.869C251.771,263.282 204.412,263.673 200.699,277.981C198.078,288.08 217.268,304.597 259.363,328.477C313.143,358.986 338.242,384.554 336.095,406.639C333.105,437.396 278.506,455.626 225.705,473.255C181.976,487.855 140.671,501.646 137.023,520.89C135.584,528.48 140,536.451 150.522,545.26L150.041,545.834Z" style="fill:rgb(136,71,156);fill-rule:nonzero;"/>
        </g>
        <g transform="matrix(1,0,0,1,430.662,77.9646)">
            <path d="M150.253,554.436C139.882,545.593 135.55,537.442 137.007,529.52C140.705,509.418 182.125,494.661 225.976,479.039C278.581,460.298 332.977,440.919 335.714,409.867C337.646,387.944 313.348,362.901 261.43,333.307C220.021,309.703 201.195,293.054 203.876,282.407C207.708,267.19 252.752,266.079 304.91,264.792C363.646,263.342 430.219,261.699 437.353,237.026C442.656,218.683 415.392,189.889 354.001,149C295.984,110.357 269.988,79.32 274.526,54.113C277.576,37.169 294.676,22.767 326.802,10.083C355.069,-1.077 391.037,-9.549 425.82,-17.742C485.427,-31.781 541.728,-45.042 545.209,-69.16C547.342,-83.93 529.635,-101.795 491.076,-123.774L491.447,-124.425C530.305,-102.276 548.133,-84.164 545.951,-69.053C542.396,-44.429 485.854,-31.111 425.993,-17.012C391.235,-8.825 355.294,-0.359 327.078,10.781C295.213,23.361 278.265,37.579 275.264,54.246C270.785,79.127 296.676,109.917 354.417,148.375C416.115,189.47 443.479,218.536 438.073,237.234C430.787,262.435 363.922,264.085 304.928,265.541C255.234,266.768 208.296,267.927 204.603,282.59C202.016,292.865 220.725,309.241 261.801,332.654C314,362.41 338.422,387.688 336.461,409.933C333.682,441.464 279.055,460.925 226.227,479.745C182.586,495.293 141.365,509.979 137.745,529.655C136.34,537.292 140.591,545.211 150.739,553.865L150.253,554.436Z" style="fill:rgb(160,70,34);fill-rule:nonzero;"/>
        </g>
        <g transform="matrix(1,0,0,1,430.662,77.9646)">
            <path d="M150.324,563.139C140.327,554.45 136.157,546.358 137.577,538.402C141.241,517.87 182.59,502.203 226.366,485.615C279.035,465.658 333.498,445.021 336.019,413.174C337.766,391.104 314.134,366.353 263.771,337.501C223.372,314.359 205.018,297.851 207.658,287.031C211.459,271.455 256.12,269.601 307.833,267.454C366.086,265.036 432.11,262.295 439.263,236.997C444.539,218.331 418.033,189.686 358.23,149.426C301.926,111.524 276.691,80.713 281.084,55.233C284.078,37.863 301.104,22.88 333.134,9.427C361.317,-2.41 397.19,-11.611 431.882,-20.509C491.307,-35.75 547.436,-50.146 550.78,-74.849C552.8,-89.764 535.568,-107.448 498.103,-128.911L498.476,-129.561C536.236,-107.93 553.588,-90.001 551.523,-74.749C548.11,-49.545 491.744,-35.088 432.068,-19.782C397.402,-10.891 361.556,-1.697 333.424,10.119C301.649,23.464 284.771,38.263 281.823,55.36C277.486,80.519 302.616,111.084 358.649,148.804C418.756,189.268 445.36,218.183 439.984,237.201C432.685,263.022 366.372,265.775 307.865,268.203C258.592,270.249 212.054,272.181 208.386,287.209C205.836,297.659 224.074,313.897 264.144,336.851C314.784,365.86 338.539,390.846 336.767,413.233C334.208,445.555 279.52,466.276 226.632,486.317C183.06,502.827 141.905,518.422 138.315,538.534C136.945,546.208 141.035,554.071 150.816,562.572L150.324,563.139Z" style="fill:rgb(168,80,159);fill-rule:nonzero;"/>
        </g>
        <g transform="matrix(1,0,0,1,430.662,77.9646)">
            <path d="M150.257,571.948C140.625,563.411 136.616,555.378 138,547.393C141.633,526.425 182.932,509.829 226.655,492.259C279.415,471.059 333.97,449.136 336.265,416.479C337.826,394.283 314.847,369.825 266.016,341.708C226.615,319.02 208.724,302.648 211.319,291.657C215.085,275.711 261.521,272.984 310.685,270.099C368.481,266.705 433.989,262.859 441.154,236.92C446.398,217.933 420.64,189.436 362.406,149.798C307.792,112.624 283.306,82.041 287.548,56.3C290.483,38.492 307.441,22.914 339.392,8.677C367.505,-3.851 403.304,-13.794 437.922,-23.411C497.195,-39.875 553.181,-55.426 556.38,-80.724C558.282,-95.772 541.52,-113.273 505.135,-134.224L505.51,-134.874C542.185,-113.755 559.068,-96.012 557.123,-80.63C553.862,-54.837 497.644,-39.221 438.123,-22.688C403.53,-13.079 367.76,-3.144 339.697,9.362C307.995,23.489 291.179,38.882 288.289,56.422C284.098,81.845 308.48,112.185 362.828,149.178C421.36,189.019 447.218,217.785 441.877,237.12C434.569,263.577 368.776,267.439 310.729,270.847C261.853,273.716 215.687,276.427 212.049,291.829C209.54,302.455 227.315,318.558 266.39,341.058C315.495,369.333 338.596,394.021 337.014,416.532C334.685,449.657 279.908,471.668 226.935,492.955C183.411,510.445 142.3,526.965 138.738,547.521C137.402,555.229 141.333,563.036 150.754,571.388L150.257,571.948Z" style="fill:rgb(208,51,121);fill-rule:nonzero;"/>
        </g>
        <g transform="matrix(1,0,0,1,430.662,77.9646)">
            <path d="M150.047,580.862C140.775,572.476 136.922,564.505 138.27,556.497C141.872,535.091 183.138,517.552 226.827,498.983C279.709,476.508 334.393,453.267 336.453,419.784C337.825,397.479 315.49,373.321 268.171,345.928C229.755,323.688 212.318,307.453 214.865,296.294C218.589,279.969 264.67,276.453 313.456,272.731C370.828,268.354 435.854,263.394 443.028,236.792C448.235,217.485 423.211,189.129 366.525,150.102C313.579,113.649 289.829,83.298 293.916,57.314C296.788,39.058 313.685,22.873 345.57,7.836C373.629,-5.396 409.371,-16.097 443.936,-26.444C503.09,-44.154 558.964,-60.881 562.007,-86.786C563.789,-101.957 547.486,-119.271 512.168,-139.717L512.543,-140.366C548.149,-119.753 564.573,-102.199 562.752,-86.698C559.651,-60.304 503.548,-43.508 444.15,-25.726C409.612,-15.386 373.898,-4.694 345.89,8.514C314.246,23.437 297.488,39.438 294.657,57.431C290.619,83.101 314.266,113.211 366.951,149.484C423.93,188.713 449.052,217.336 443.753,236.987C436.44,264.102 371.133,269.084 313.513,273.479C265.01,277.18 219.197,280.675 215.596,296.461C213.132,307.258 230.453,323.227 268.547,345.279C316.136,372.828 338.593,397.214 337.202,419.83C335.113,453.775 280.213,477.108 227.12,499.674C183.626,518.159 142.543,535.62 139.01,556.621C137.708,564.357 141.483,572.104 150.55,580.306L150.047,580.862Z" style="fill:rgb(148,68,154);fill-rule:nonzero;"/>
        </g>
        <g transform="matrix(1,0,0,1,430.662,77.9646)">
            <path d="M149.697,589.898C140.776,581.658 137.078,573.752 138.391,565.726C141.964,543.873 183.218,525.373 226.894,505.788C279.929,482.006 334.77,457.413 336.583,423.094C337.767,400.701 316.063,376.848 270.233,350.17C232.79,328.373 215.8,312.271 218.292,300.944C221.971,284.229 267.721,279.917 316.157,275.352C373.133,269.98 437.711,263.894 444.889,236.61C450.051,216.986 425.749,188.769 370.594,150.345C319.293,114.605 296.265,84.492 300.194,58.282C303,39.567 319.84,22.763 351.677,6.909C379.694,-7.042 415.398,-18.513 449.928,-29.607C508.995,-48.585 564.786,-66.51 567.666,-93.032C569.325,-108.313 553.474,-125.438 519.206,-145.386L519.583,-146.035C554.134,-125.922 570.105,-108.558 568.411,-92.951C565.479,-65.945 509.463,-47.947 450.157,-28.893C383.117,-7.354 307.133,17.059 300.936,58.393C297.053,84.293 319.979,114.169 371.023,149.729C426.467,188.355 450.866,216.836 445.613,236.801C438.303,264.591 373.448,270.704 316.227,276.099C268.071,280.638 222.585,284.926 219.025,301.105C216.612,312.073 233.485,327.91 270.61,349.521C316.707,376.354 338.532,400.434 337.332,423.134C335.494,457.91 280.441,482.598 227.201,506.473C183.714,525.973 142.639,544.393 139.131,565.847C137.862,573.604 141.485,581.292 150.206,589.348L149.697,589.898Z" style="fill:rgb(164,87,119);fill-rule:nonzero;"/>
        </g>
        <g transform="matrix(1,0,0,1,430.662,77.9646)">
            <path d="M149.202,599.048C140.627,590.954 137.081,583.112 138.359,575.075C141.908,552.772 183.166,533.295 226.847,512.675C280.063,487.553 335.091,461.575 336.651,426.403C337.646,403.942 316.564,380.397 272.199,354.423C235.719,333.064 219.168,317.098 221.602,305.608C225.228,288.496 270.668,283.379 318.777,277.962C375.389,271.587 439.554,264.362 446.731,236.376C451.845,216.438 428.253,188.355 374.608,150.523C324.93,115.488 302.613,85.615 306.381,59.196C309.118,40.012 325.909,22.574 357.713,5.888C385.703,-8.797 421.391,-21.056 455.903,-32.91C514.914,-53.18 570.654,-72.326 573.362,-99.475C574.896,-114.854 559.488,-131.788 526.26,-151.243L526.639,-151.89C560.146,-132.271 575.675,-115.102 574.108,-99.4C571.353,-71.773 515.393,-52.551 456.146,-32.201C421.661,-20.356 386.001,-8.107 358.062,6.552C326.486,23.119 309.824,40.373 307.124,59.301C303.399,85.415 325.615,115.053 375.041,149.91C428.97,187.943 452.657,216.287 447.458,236.562C440.151,265.05 375.713,272.306 318.86,278.707C271.028,284.094 225.849,289.181 222.336,305.764C219.977,316.896 236.412,332.602 272.578,353.776C317.206,379.904 338.409,403.672 337.4,426.437C335.821,462.06 280.584,488.136 227.167,513.353C183.67,533.887 142.586,553.281 139.1,575.193C137.863,582.967 141.336,590.592 149.716,598.503L149.202,599.048Z" style="fill:rgb(185,41,37);fill-rule:nonzero;"/>
        </g>
        <g transform="matrix(1,0,0,1,430.662,77.9646)">
            <path d="M148.57,608.316C140.333,600.365 136.935,592.591 138.181,584.549C141.707,561.792 182.988,541.32 226.693,519.646C280.119,493.151 335.364,465.755 336.661,429.722C337.47,407.215 317,383.986 274.079,358.706C238.547,337.778 222.428,321.942 224.8,310.293C228.367,292.771 273.523,286.841 321.331,280.563C377.606,273.172 441.391,264.795 448.563,236.086C453.622,215.839 430.729,187.889 378.577,150.641C330.498,116.302 308.878,86.674 312.484,60.064C315.148,40.401 331.896,22.317 363.683,4.779C391.659,-10.655 427.348,-23.717 461.86,-36.349C520.847,-57.938 576.562,-78.329 579.09,-106.114C580.496,-121.578 565.524,-138.315 533.319,-157.285L533.7,-157.931C566.181,-138.8 581.272,-121.828 579.837,-106.046C577.266,-77.788 521.334,-57.317 462.118,-35.645C427.632,-23.022 391.971,-9.971 364.045,5.436C332.48,22.851 315.857,40.753 313.227,60.165C309.663,86.473 331.181,115.868 379.013,150.031C431.444,187.479 454.433,215.687 449.291,236.268C441.995,265.473 377.941,273.884 321.429,281.306C273.894,287.549 228.996,293.444 225.535,310.442C223.235,321.739 239.238,337.314 274.46,358.06C317.639,383.492 338.23,406.941 337.41,429.748C336.098,466.229 280.649,493.726 227.026,520.318C183.5,541.903 142.389,562.291 138.922,584.663C137.716,592.447 141.042,600.008 149.09,607.777L148.57,608.316Z" style="fill:rgb(174,103,40);fill-rule:nonzero;"/>
        </g>
        <g transform="matrix(1,0,0,1,430.662,77.9646)">
            <path d="M147.795,617.714C139.89,609.903 136.637,602.197 137.852,594.155C141.359,570.941 182.68,549.457 226.427,526.711C280.094,498.807 335.587,469.953 336.612,433.046C337.237,410.515 317.367,387.605 275.863,363.008C241.271,342.507 225.577,326.803 227.882,314.999C231.386,297.057 276.28,290.303 323.811,283.153C379.78,274.734 443.217,265.191 450.379,235.74C455.377,215.188 433.171,187.37 382.493,150.698C335.99,117.046 315.058,87.669 318.5,60.888C321.09,40.735 337.801,21.991 369.588,3.583C397.563,-12.618 433.272,-26.5 467.805,-39.925C526.798,-62.86 582.519,-84.522 584.858,-112.953C586.138,-128.487 571.595,-145.026 540.398,-163.516L540.781,-164.161C572.248,-145.511 586.911,-128.74 585.606,-112.892C583.228,-83.993 527.294,-62.248 468.077,-39.226C433.57,-25.811 397.89,-11.939 369.963,4.232C338.393,22.515 321.802,41.078 319.244,60.983C315.84,87.467 336.673,116.614 382.933,150.091C433.886,186.961 456.187,215.035 451.108,235.917C443.827,265.858 380.125,275.44 323.923,283.895C276.661,291.004 232.021,297.719 228.618,315.143C226.381,326.598 241.96,342.043 276.246,362.363C318.004,387.111 337.996,410.239 337.361,433.066C336.324,470.415 280.632,499.372 226.773,527.376C183.2,550.032 142.044,571.432 138.594,594.268C137.417,602.056 140.6,609.551 148.322,617.181L147.795,617.714Z" style="fill:rgb(202,87,68);fill-rule:nonzero;"/>
        </g>
        <g transform="matrix(1,0,0,1,430.662,77.9646)">
            <path d="M146.876,627.234C139.294,619.563 136.185,611.927 137.37,603.891C140.863,580.217 182.242,557.701 226.05,533.862C279.986,504.514 335.758,474.165 336.504,436.374C336.95,413.841 317.668,391.258 277.56,367.334C243.896,347.254 228.617,331.682 230.852,319.727C234.286,301.354 278.942,293.768 326.22,285.736C381.914,276.274 445.039,265.551 452.188,235.332C457.12,214.479 435.591,186.792 386.368,150.687C341.417,117.715 321.158,88.595 324.436,61.664C326.95,41.013 343.63,21.594 375.432,2.298C403.422,-14.685 439.17,-29.406 473.74,-43.642C532.769,-67.95 588.523,-90.91 590.667,-119.992C591.816,-135.582 577.693,-151.917 547.491,-169.932L547.876,-170.577C578.346,-152.402 592.588,-135.838 591.415,-119.937C589.237,-90.393 533.274,-67.347 474.025,-42.948C439.481,-28.723 403.762,-14.014 375.821,2.939C344.229,22.108 327.665,41.347 325.181,61.754C321.938,88.393 342.098,117.285 386.812,150.083C436.304,186.385 457.927,214.327 452.917,235.505C445.654,266.207 382.269,276.976 326.346,286.476C279.333,294.462 234.927,302.006 231.589,319.864C229.419,331.473 244.582,346.79 277.944,366.689C318.305,390.764 337.705,413.563 337.254,436.39C336.5,474.615 280.533,505.069 226.409,534.521C182.769,558.268 141.55,580.697 138.112,604C136.963,611.787 140.004,619.215 147.409,626.707L146.876,627.234Z" style="fill:rgb(138,55,29);fill-rule:nonzero;"/>
        </g>
        <g transform="matrix(1,0,0,1,430.662,77.9646)">
            <path d="M145.82,636.891C138.553,629.355 135.584,621.791 136.742,613.767C140.225,589.629 181.679,566.062 225.567,541.109C279.801,510.275 335.882,478.393 336.342,439.71C336.61,417.197 317.909,394.947 279.172,371.687C246.424,352.022 231.554,336.582 233.714,324.481C237.072,305.67 281.512,297.239 328.562,288.313C384.01,277.795 446.855,265.872 453.985,234.866C458.849,213.721 437.983,186.163 390.198,150.617C346.772,118.316 327.176,89.459 330.291,62.398C332.726,41.239 349.383,21.132 381.216,0.929C409.234,-16.854 445.039,-32.432 479.665,-47.497C538.763,-73.209 594.582,-97.495 596.523,-127.237C597.544,-142.868 583.835,-158.997 554.613,-176.544L555,-177.187C584.485,-159.481 598.313,-143.126 597.272,-127.188C595.301,-96.989 539.277,-72.615 479.965,-46.809C445.364,-31.755 409.587,-16.189 381.618,1.562C349.989,21.637 333.443,41.564 331.036,62.484C327.955,89.256 347.453,117.888 390.646,150.016C438.695,185.757 459.653,213.567 454.717,235.034C447.477,266.519 384.375,278.488 328.702,289.05C281.913,297.927 237.719,306.311 234.452,324.613C232.354,336.371 247.108,351.559 279.558,371.044C318.544,394.453 337.363,416.917 337.092,439.72C336.626,478.831 280.356,510.823 225.938,541.762C182.214,566.62 140.915,590.1 137.484,613.873C136.362,621.653 139.265,629.013 146.36,636.37L145.82,636.891Z" style="fill:rgb(182,145,104);fill-rule:nonzero;"/>
        </g>
        <g transform="matrix(1,0,0,1,430.662,77.9646)">
            <path d="M144.613,646.685C137.655,639.281 134.823,631.789 135.956,623.78C139.437,599.176 180.983,574.537 224.969,548.452C279.53,516.096 335.947,482.639 336.116,443.059C336.212,420.588 318.082,398.674 280.689,376.065C248.846,356.812 234.379,341.503 236.46,329.265C239.737,310.002 283.986,300.716 330.833,290.884C386.063,279.292 448.663,266.154 455.772,234.339C460.561,212.908 440.349,185.479 393.983,150.487C352.059,118.847 333.114,90.259 336.067,63.089C338.423,41.413 355.065,20.603 386.944,-0.529C415.004,-19.129 450.885,-35.584 485.585,-51.497C544.778,-78.643 600.688,-104.284 602.422,-134.691C603.313,-150.349 590.011,-166.266 561.753,-183.352L562.142,-183.993C590.659,-166.75 604.08,-150.609 603.171,-134.649C601.412,-103.791 545.302,-78.058 485.897,-50.815C451.224,-34.915 415.37,-18.472 387.359,0.096C355.677,21.097 339.143,41.729 336.813,63.17C333.891,90.055 352.739,118.42 394.435,149.888C441.061,185.077 461.363,212.754 456.504,234.502C449.29,266.789 386.439,279.979 330.987,291.617C284.397,301.396 240.391,310.631 237.2,329.391C235.176,341.29 249.528,356.348 281.077,375.423C318.714,398.18 336.963,420.305 336.866,443.062C336.79,460.974 325.072,479.352 301.042,499.243C279.888,516.755 252.164,533.197 225.352,549.097C181.525,575.088 140.129,599.638 136.699,623.886C135.6,631.654 138.367,638.944 145.16,646.171L144.613,646.685Z" style="fill:rgb(154,86,87);fill-rule:nonzero;"/>
        </g>
        <g transform="matrix(1,0,0,1,430.662,77.9646)">
            <path d="M143.272,656.612C136.614,649.341 133.916,641.923 135.026,633.936C138.509,608.864 180.163,583.137 224.263,555.898C279.179,521.979 335.965,486.905 335.837,446.421C335.766,424.015 318.195,402.444 282.121,380.477C251.173,361.629 237.101,346.453 239.101,334.082C242.29,314.357 286.371,304.201 333.04,293.448C388.082,280.767 450.468,266.393 457.551,233.746C462.26,212.038 442.691,184.74 397.727,150.294C357.277,119.306 338.973,90.993 341.767,63.736C344.043,41.534 360.677,20.008 392.619,-2.073C420.734,-21.509 456.709,-38.86 491.5,-55.641C550.819,-84.252 606.85,-111.277 608.367,-142.355C609.132,-158.023 596.228,-173.725 568.916,-190.356L569.307,-190.997C596.874,-174.209 609.896,-158.287 609.116,-142.319C607.577,-110.795 551.353,-83.676 491.826,-54.965C457.062,-38.197 421.112,-20.859 393.045,-1.456C361.294,20.493 344.765,41.842 342.513,63.812C339.748,90.789 357.958,118.882 398.183,149.698C443.402,184.34 463.061,211.884 458.283,233.905C451.101,267.017 388.468,281.447 333.208,294.18C286.792,304.874 242.95,314.976 239.841,334.201C237.896,346.238 251.853,361.165 282.511,379.836C318.827,401.951 336.515,423.73 336.587,446.418C336.645,464.731 324.936,483.701 300.792,504.409C279.537,522.638 251.638,539.871 224.657,556.536C180.711,583.68 139.203,609.317 135.769,634.038C134.692,641.791 137.327,649.009 143.826,656.106L143.272,656.612Z" style="fill:rgb(187,32,37);fill-rule:nonzero;"/>
        </g>
        <g transform="matrix(1,0,0,1,430.662,77.9646)">
            <path d="M141.783,666.688C135.504,659.644 132.866,652.09 133.94,644.238C137.435,618.696 179.214,591.858 223.446,563.444C276.169,529.576 335.926,491.189 335.498,449.797C335.267,427.479 318.247,406.256 283.466,384.917C253.401,366.473 239.717,351.432 241.632,338.935C244.727,318.74 288.662,307.701 335.176,296.014C390.061,282.223 452.269,266.592 459.322,233.09C463.948,211.113 445.012,183.947 401.428,150.038C362.426,119.693 344.75,91.662 347.389,64.34C349.585,41.604 366.218,19.347 398.24,-3.705C426.425,-23.995 462.513,-42.264 497.413,-59.932C556.891,-90.043 613.07,-118.484 614.367,-150.238C615.008,-165.901 602.496,-181.382 576.118,-197.565L576.511,-198.205C603.141,-181.866 615.769,-166.167 615.117,-150.208C613.802,-118.014 557.432,-89.476 497.752,-59.263C462.878,-41.608 426.816,-23.352 398.678,-3.096C366.842,19.822 350.31,41.904 348.136,64.412C345.523,91.457 363.106,119.271 401.889,149.446C445.721,183.549 464.748,210.959 460.056,233.244C452.905,267.204 390.457,282.896 335.358,296.741C289.093,308.366 245.393,319.347 242.374,339.049C240.509,351.214 254.079,366.008 283.858,384.278C318.877,405.763 336.014,427.191 336.248,449.789C336.442,468.506 324.738,488.076 300.468,509.618C279.103,528.583 251.015,546.626 223.852,564.075C179.769,592.394 138.13,619.141 134.683,644.34C133.625,652.071 136.13,659.219 142.342,666.19L141.783,666.688Z" style="fill:rgb(136,125,187);fill-rule:nonzero;"/>
        </g>
        <g transform="matrix(1,0,0,1,430.662,77.9646)">
            <path d="M140.146,676.909C134.148,669.987 131.643,662.511 132.7,654.688C136.213,628.676 178.133,600.708 222.515,571.098C275.63,535.66 335.833,495.494 335.101,453.19C334.716,430.981 318.237,410.112 284.723,389.392C255.531,371.344 242.229,356.438 244.057,343.825C247.052,323.149 290.864,311.211 337.248,298.572C392.004,283.652 454.065,266.741 461.088,232.362C465.629,210.127 447.313,183.093 405.096,149.716C367.516,120.006 350.457,92.262 352.944,64.899C355.061,41.623 371.701,18.62 403.815,-5.422C432.084,-26.585 468.301,-45.793 503.326,-64.369C562.99,-96.013 619.345,-125.903 620.417,-158.338C620.935,-173.98 608.809,-189.237 583.346,-204.979L583.74,-205.617C609.451,-189.721 621.693,-174.248 621.167,-158.313C620.08,-125.444 563.539,-95.456 503.677,-63.707C468.678,-45.144 432.486,-25.949 404.265,-4.822C372.33,19.086 355.787,41.914 353.691,64.967C351.229,92.058 368.195,119.587 405.561,149.128C448.022,182.697 466.426,209.973 461.822,232.512C454.708,267.344 392.41,284.318 337.445,299.296C291.305,311.868 247.723,323.743 244.799,343.933C243.019,356.219 256.208,370.88 285.117,388.753C318.866,409.619 335.461,430.692 335.85,453.178C336.181,472.299 324.477,492.48 300.069,514.875C278.581,534.593 250.291,553.468 222.931,571.722C178.694,601.235 136.911,629.112 133.443,654.789C132.402,662.496 134.78,669.571 140.713,676.419L140.146,676.909Z" style="fill:rgb(166,72,155);fill-rule:nonzero;"/>
        </g>
        <g transform="matrix(1,0,0,1,430.662,77.9646)">
            <path d="M138.369,687.282C132.644,680.48 130.268,673.082 131.309,665.294C134.848,638.81 176.925,609.691 221.472,578.863C275.008,541.815 335.687,499.824 334.648,456.607C334.118,434.528 318.171,414.018 285.896,393.902C257.565,376.245 244.637,361.478 246.375,348.754C249.265,327.587 292.977,314.735 339.256,301.129C393.911,285.061 455.858,266.848 462.847,231.569C467.3,209.086 449.595,182.187 408.72,149.333C372.534,120.248 356.082,92.798 358.424,65.415C360.461,41.59 377.117,17.829 409.342,-7.227C437.708,-29.281 474.073,-49.451 509.241,-68.957C569.121,-102.17 625.682,-133.541 626.524,-166.659C626.922,-182.265 615.175,-197.293 590.61,-212.602L591.007,-213.239C615.816,-197.777 627.68,-182.534 627.274,-166.64C626.42,-133.093 569.678,-101.622 509.604,-68.301C474.462,-48.809 438.122,-28.653 409.803,-6.634C377.751,18.286 361.19,41.874 359.171,65.479C356.852,92.594 373.213,119.832 409.19,148.749C450.303,181.794 468.095,208.932 463.582,231.715C456.506,267.439 394.327,285.72 339.468,301.849C293.428,315.385 249.942,328.17 247.118,348.855C245.425,361.255 258.239,375.782 286.292,393.266C318.799,413.524 334.861,434.237 335.398,456.589C335.867,476.115 324.157,496.919 299.598,520.188C277.977,540.673 249.468,560.401 221.898,579.48C177.492,610.211 135.548,639.237 132.052,665.393C131.026,673.07 133.28,680.072 138.943,686.8L138.369,687.282Z" style="fill:rgb(153,94,155);fill-rule:nonzero;"/>
        </g>
        <g transform="matrix(1,0,0,1,430.662,77.9646)">
            <path d="M136.44,697.815C130.979,691.13 128.729,683.81 129.759,676.057C133.335,649.099 175.585,618.809 220.315,586.739C274.297,548.038 335.482,504.173 334.137,460.043C333.468,438.116 318.043,417.969 286.98,398.448C259.5,381.179 246.941,366.551 248.586,353.728C251.365,332.06 295.001,318.277 341.199,303.687C395.782,286.446 457.648,266.906 464.602,230.704C468.964,207.985 451.86,181.222 412.312,148.886C377.49,120.415 361.634,93.266 363.836,65.885C365.797,41.505 382.476,16.971 414.828,-9.12C443.305,-32.086 479.835,-53.24 515.163,-73.697C575.289,-108.515 632.08,-141.4 632.691,-175.201C632.973,-190.755 621.598,-205.55 597.916,-220.433L598.314,-221.067C622.238,-206.033 633.728,-191.026 633.441,-175.188C632.822,-140.964 575.854,-107.975 515.539,-73.048C480.235,-52.605 443.73,-31.466 415.299,-8.536C383.116,17.418 366.527,41.782 364.583,65.946C362.402,93.062 378.17,120.002 412.786,148.305C452.567,180.832 469.758,207.831 465.338,230.846C458.301,267.486 396.208,287.099 341.424,304.401C295.462,318.919 252.048,332.631 249.33,353.823C247.726,366.326 260.172,380.716 287.379,397.813C318.67,417.477 334.209,437.824 334.886,460.021C335.494,479.951 323.771,501.386 299.05,525.547C277.285,546.818 248.545,567.423 220.752,587.35C176.158,619.32 134.036,649.519 130.502,676.156C129.488,683.801 131.62,690.73 137.021,697.341L136.44,697.815Z" style="fill:rgb(238,42,36);fill-rule:nonzero;"/>
        </g>
        <g transform="matrix(1,0,0,1,430.662,77.9646)">
            <path d="M134.366,708.508C129.16,701.937 127.038,694.693 128.057,686.98C131.681,659.546 174.119,628.063 219.048,594.73C273.503,554.332 335.223,508.544 333.57,463.505C332.772,441.75 317.859,421.969 287.981,403.031C261.338,386.146 249.142,371.66 250.692,358.747C253.355,336.57 296.937,321.841 343.078,306.246C397.62,287.812 459.439,266.918 466.355,229.771C470.627,206.827 454.113,180.204 415.869,148.378C382.384,120.511 367.112,93.668 369.182,66.312C371.068,41.371 387.781,16.049 420.275,-11.1C448.878,-34.998 485.591,-57.159 521.094,-78.59C581.495,-115.05 638.545,-149.487 638.922,-183.972C639.091,-199.457 628.08,-214.016 605.262,-228.479L605.664,-229.112C628.72,-214.499 639.844,-199.73 639.672,-183.963C639.29,-149.061 582.066,-114.519 521.482,-77.948C486.002,-56.532 449.314,-34.386 420.756,-10.525C388.425,16.488 371.8,41.64 369.93,66.369C367.88,93.465 383.064,120.102 416.35,147.802C454.82,179.816 471.419,206.674 467.093,229.908C460.097,267.488 398.056,288.456 343.318,306.957C297.408,322.474 254.043,337.129 251.438,358.836C249.925,371.434 262.01,385.683 288.382,402.398C318.485,421.478 333.512,441.457 334.32,463.477C335.066,483.813 323.326,505.887 298.429,530.961C276.511,553.035 247.526,574.538 219.496,595.333C174.697,628.567 132.382,659.959 128.8,687.078C127.795,694.688 129.808,701.546 134.954,708.043L134.366,708.508Z" style="fill:rgb(178,130,94);fill-rule:nonzero;"/>
        </g>
        <g transform="matrix(1,0,0,1,430.662,77.9646)">
            <path d="M132.146,719.367C120.886,704.688 124.723,687.564 144.221,665.475C161.482,645.921 188.774,624.993 217.669,602.837C272.621,560.699 334.905,512.94 332.946,466.993C332.026,445.432 317.618,426.021 288.896,407.654C263.082,391.146 251.241,376.805 252.696,363.811C255.237,341.115 298.788,325.42 344.896,308.802C399.423,289.15 461.226,266.877 468.105,228.762C472.284,205.608 456.35,179.127 419.393,147.806C387.214,120.533 372.516,94 374.46,66.691C376.275,41.183 393.031,15.06 425.684,-13.171C454.426,-38.021 491.339,-61.212 527.036,-83.641C587.737,-121.78 645.073,-157.803 645.214,-192.971C645.275,-208.373 634.624,-222.69 612.651,-236.741L613.056,-237.373C635.262,-223.172 646.026,-208.647 645.964,-192.968C645.821,-157.388 588.316,-121.258 527.435,-83.006C491.762,-60.592 454.873,-37.416 426.174,-12.604C393.68,15.49 377.008,41.445 375.208,66.744C373.283,93.798 387.894,120.126 419.877,147.233C457.057,178.743 473.073,205.455 468.843,228.895C461.887,267.436 399.868,289.787 345.15,309.508C299.268,326.044 255.931,341.663 253.441,363.895C252.021,376.576 263.75,390.684 289.3,407.021C318.243,425.531 332.765,445.138 333.695,466.962C334.579,487.699 322.815,510.422 297.731,536.429C275.649,559.323 246.406,581.746 218.125,603.432C189.26,625.565 161.996,646.472 144.784,665.972C125.564,687.745 121.737,704.566 132.741,718.91L132.146,719.367Z" style="fill:rgb(238,71,35);fill-rule:nonzero;"/>
        </g>
        <g transform="matrix(1,0,0,1,430.662,77.9646)">
            <path d="M129.774,730.396C118.882,715.719 122.948,698.324 142.57,675.656C159.945,655.585 187.258,633.961 216.175,611.067C271.65,567.146 334.528,517.367 332.265,470.519C331.234,449.169 317.319,430.133 289.724,412.323C264.726,396.188 253.234,381.995 254.593,368.93C257.008,345.707 300.55,329.026 346.648,311.365C401.189,290.47 463.008,266.787 469.852,227.681C473.938,204.33 458.575,177.995 422.884,147.17C391.982,120.481 377.848,94.265 379.674,67.023C381.422,40.944 398.229,14.006 431.057,-15.33C459.952,-41.151 497.082,-65.399 532.988,-88.848C594.021,-128.707 651.668,-166.354 651.571,-202.202C651.53,-217.505 641.231,-231.578 620.088,-245.225L620.494,-245.854C641.869,-232.06 652.279,-217.781 652.321,-202.204C652.419,-165.949 594.606,-128.193 533.398,-88.22C497.515,-64.786 460.41,-40.555 431.557,-14.771C398.883,14.428 382.156,41.199 380.422,67.073C378.613,94.064 392.663,120.079 423.374,146.603C459.281,177.614 474.726,204.177 470.59,227.811C463.673,267.335 401.644,291.099 346.917,312.065C301.039,329.642 257.706,346.243 255.338,369.008C254.012,381.764 265.393,395.727 290.131,411.692C317.943,429.643 331.971,448.873 333.014,470.482C334.035,491.62 322.241,515 296.958,541.958C274.699,565.689 245.184,589.058 216.641,611.655C187.752,634.526 160.465,656.129 143.138,676.147C123.784,698.505 119.729,715.601 130.377,729.948L129.774,730.396Z" style="fill:rgb(140,78,32);fill-rule:nonzero;"/>
        </g>
        <g transform="matrix(1,0,0,1,430.662,77.9646)">
            <path d="M127.26,741.596C116.729,726.915 121.025,709.246 140.778,685.99C158.272,665.394 185.617,643.064 214.567,619.425C270.593,573.675 334.094,521.82 331.531,474.077C330.396,452.957 316.966,434.299 290.471,417.035C266.275,401.27 255.127,387.226 256.39,374.102C258.674,350.343 302.231,332.655 348.345,313.929C402.929,291.764 464.795,266.641 471.604,226.522C475.6,202.987 460.797,176.802 426.352,146.469C396.695,120.353 383.112,94.457 384.829,67.303C386.514,40.648 403.384,12.883 436.401,-17.58C465.465,-44.394 502.827,-69.721 538.959,-94.215C600.35,-135.832 658.336,-175.14 658.003,-211.667C657.864,-226.856 647.912,-240.681 627.576,-253.931L627.986,-254.559C648.548,-241.162 658.611,-227.133 658.753,-211.673C659.09,-174.745 600.941,-135.327 539.38,-93.594C503.271,-69.116 465.933,-43.805 436.91,-17.029C404.041,13.297 387.25,40.898 385.578,67.351C383.876,94.258 397.376,119.954 426.848,145.906C461.504,176.425 476.386,202.836 472.344,226.648C465.465,267.179 403.393,292.385 348.627,314.624C302.729,333.262 259.377,350.866 257.135,374.173C255.903,386.993 266.941,400.808 290.88,416.406C317.59,433.81 331.132,452.661 332.28,474.037C333.436,495.572 321.604,519.617 296.108,547.549C273.663,572.137 243.862,596.472 215.042,620.006C186.119,643.623 158.8,665.932 141.35,686.476C121.855,709.427 117.572,726.803 127.869,741.158L127.26,741.596Z" style="fill:rgb(190,87,161);fill-rule:nonzero;"/>
        </g>
        <g transform="matrix(1,0,0,1,430.662,77.9646)">
            <path d="M124.59,752.974C114.418,738.283 118.946,720.332 138.839,696.479C156.46,675.35 183.847,652.307 212.841,627.911C269.443,580.286 333.598,526.308 330.738,477.676C329.511,456.803 316.556,438.522 291.132,421.792C267.727,406.391 256.915,392.5 258.081,379.327C260.23,355.025 303.823,336.311 349.975,316.498C404.627,293.035 466.571,266.442 473.35,225.29C477.254,201.585 463.002,175.553 429.78,145.703C401.34,120.148 388.301,94.58 389.917,67.533C391.545,40.3 408.488,11.693 441.714,-19.921C470.959,-47.748 508.57,-74.18 544.943,-99.742C606.722,-143.159 665.074,-184.167 664.506,-221.367C664.275,-236.429 654.662,-250.003 635.118,-262.864L635.53,-263.491C655.298,-250.483 665.021,-236.708 665.255,-221.378C665.83,-183.781 607.32,-142.662 545.375,-99.128C509.023,-73.582 471.436,-47.166 442.23,-19.377C409.148,12.1 392.282,40.543 390.666,67.578C389.064,94.381 402.022,119.753 430.282,145.145C463.709,175.179 478.039,201.435 474.09,225.412C467.245,266.97 405.1,293.648 350.271,317.188C304.331,336.909 260.939,355.538 258.829,379.394C257.689,392.266 268.391,405.93 291.544,421.165C317.18,438.035 330.245,456.506 331.487,477.632C332.776,499.562 320.9,524.281 295.178,553.204C272.535,578.665 242.434,603.992 213.324,628.485C156.777,676.063 103.365,721.004 125.207,752.546L124.59,752.974Z" style="fill:rgb(221,81,126);fill-rule:nonzero;"/>
        </g>
        <g transform="matrix(1,0,0,1,430.662,77.9646)">
            <path d="M121.766,764.536C111.95,749.831 116.711,731.589 136.753,707.128C154.51,685.455 181.95,661.688 211.001,636.526C268.206,586.981 333.042,530.824 329.893,481.315C328.582,460.708 316.092,442.811 291.71,426.602C269.083,411.559 258.604,397.824 259.673,384.614C261.686,359.762 305.336,339.998 351.55,319.074C406.299,294.286 468.352,266.19 475.103,223.983C478.918,200.125 465.208,174.249 433.189,144.876C405.933,119.871 393.424,94.629 394.95,67.708C396.527,39.892 413.553,10.431 447.002,-22.358C476.442,-51.219 514.318,-78.782 550.949,-105.438C613.141,-150.694 671.883,-193.44 671.081,-231.309C670.765,-246.23 661.485,-259.55 642.712,-272.031L643.128,-272.655C662.12,-260.029 671.509,-246.51 671.83,-231.325C672.641,-193.064 613.745,-150.206 551.391,-104.832C480.057,-52.921 399.204,5.914 395.699,67.75C394.186,94.433 406.615,119.479 433.697,144.323C465.915,173.879 479.701,199.976 475.843,224.102C469.029,266.708 406.78,294.892 351.859,319.758C305.853,340.588 262.397,360.263 260.42,384.675C259.375,397.589 269.746,411.099 292.125,425.977C316.716,442.324 329.314,460.411 330.641,481.269C332.061,503.587 320.132,528.988 294.172,558.924C271.32,585.275 240.906,611.618 211.493,637.094C154.826,686.174 101.303,732.531 122.39,764.12L121.766,764.536Z" style="fill:rgb(158,117,123);fill-rule:nonzero;"/>
        </g>
        <g transform="matrix(1,0,0,1,430.662,77.9646)">
            <path d="M118.792,776.293C109.327,761.565 114.325,743.025 134.522,717.946C152.42,695.722 179.925,671.221 209.044,645.282C266.875,593.766 332.422,535.377 328.989,484.999C327.604,464.67 315.57,447.154 292.201,431.452C270.34,416.765 260.187,403.191 261.161,389.957C263.032,364.549 306.761,343.715 353.058,321.657C407.931,295.514 470.125,265.882 476.853,222.598C480.583,198.6 467.406,172.883 436.567,143.979C410.463,119.512 398.476,94.603 399.921,67.827C401.454,39.426 418.576,9.098 452.265,-24.89C481.916,-54.806 520.075,-83.525 556.978,-111.299C619.611,-158.438 678.771,-202.963 677.739,-241.496C677.344,-256.262 668.392,-269.326 650.371,-281.434L650.789,-282.056C669.025,-269.803 678.086,-256.542 678.488,-241.516C679.531,-202.597 620.221,-157.959 557.429,-110.7C485.549,-56.602 404.079,4.714 400.67,67.867C399.238,94.408 411.147,119.125 437.081,143.432C468.113,172.518 481.365,198.451 477.594,222.713C470.805,266.389 408.421,296.111 353.381,322.334C307.286,344.295 263.748,365.038 261.909,390.012C260.957,402.954 271.002,416.306 292.619,430.829C316.194,446.67 328.335,464.372 329.738,484.948C331.285,507.653 319.296,533.744 293.085,564.714C270.013,591.975 239.272,619.359 209.543,645.842C152.738,696.444 99.082,744.239 119.423,775.887L118.792,776.293Z" style="fill:rgb(241,91,80);fill-rule:nonzero;"/>
        </g>
        <g transform="matrix(1,0,0,1,430.662,77.9646)">
            <path d="M115.66,788.234C106.542,773.479 111.78,754.635 132.142,728.93C150.19,706.144 177.77,680.899 206.969,654.174C265.455,600.642 331.743,539.967 328.035,488.734C326.584,468.7 314.998,451.569 292.614,436.363C271.504,422.024 261.67,408.613 262.552,395.364C264.278,369.393 308.11,347.462 354.516,324.245C409.537,296.717 471.9,265.516 478.611,221.136C482.26,197.014 469.605,171.462 439.926,143.021C414.941,119.079 403.464,94.503 404.838,67.887C406.335,38.9 423.563,7.692 457.509,-27.52C487.386,-58.511 525.842,-88.413 563.032,-117.33C626.135,-166.395 685.738,-212.739 684.479,-251.926C684.011,-266.526 675.38,-279.331 658.092,-291.075L658.514,-291.695C676.014,-279.807 684.752,-266.807 685.229,-251.95C686.5,-212.381 626.75,-165.923 563.493,-116.738C491.038,-60.401 408.917,3.452 405.587,67.926C404.225,94.311 415.627,118.697 440.445,142.479C470.313,171.102 483.041,196.868 479.354,221.249C472.583,266.012 410.036,297.306 354.851,324.915C308.643,348.034 264.998,369.871 263.3,395.414C262.438,408.375 272.165,421.566 293.035,435.742C315.308,450.873 327.335,468.684 328.783,488.681C330.454,511.765 318.396,538.553 291.921,570.575C268.617,598.764 237.535,627.214 207.476,654.727C150.508,706.87 96.698,756.122 116.297,787.84L115.66,788.234Z" style="fill:rgb(240,75,34);fill-rule:nonzero;"/>
        </g>
        <g transform="matrix(1,0,0,1,430.662,77.9646)">
            <path d="M112.375,800.375C103.601,785.588 109.078,766.431 129.612,740.088C147.817,716.732 175.483,690.734 204.774,663.21C263.938,607.614 330.996,544.601 327.022,492.527C325.516,472.8 314.367,456.053 292.936,441.328C272.567,427.334 263.049,414.09 263.838,400.84C265.419,374.298 309.375,351.247 355.912,326.843C411.107,297.897 473.669,265.09 480.371,219.596C483.941,195.364 471.801,169.98 443.255,141.992C419.36,118.565 408.383,94.325 409.697,67.886C411.166,38.311 428.515,6.212 462.732,-30.246C492.849,-62.334 531.618,-93.444 569.11,-123.53C632.71,-174.564 692.781,-222.768 691.302,-262.602C690.767,-277.023 682.448,-289.569 665.874,-300.957L666.298,-301.575C683.082,-290.043 691.506,-277.305 692.052,-262.63C693.545,-222.419 633.33,-174.101 569.58,-122.945C496.521,-64.32 413.715,2.126 410.446,67.924C409.144,94.136 420.047,118.188 443.78,141.457C472.509,169.624 484.721,195.219 481.113,219.705C474.355,265.577 411.614,298.479 356.26,327.507C309.917,351.811 266.143,374.766 264.587,400.884C263.815,413.851 273.227,426.877 293.361,440.71C314.69,455.364 326.267,472.779 327.77,492.471C329.56,515.927 317.426,543.419 290.673,576.517C267.125,605.649 235.689,635.189 205.288,663.757C148.135,717.464 94.15,768.191 113.02,799.992L112.375,800.375Z" style="fill:rgb(157,115,136);fill-rule:nonzero;"/>
        </g>
        <g transform="matrix(1,0,0,1,430.662,77.9646)">
            <path d="M108.934,812.717C100.5,797.892 106.22,778.415 126.935,751.424C145.303,727.49 173.067,700.728 202.46,672.394C262.33,614.684 330.187,549.274 325.958,496.372C324.405,476.963 313.684,460.599 293.179,446.345C273.534,432.688 264.325,419.614 265.025,406.374C266.459,379.259 310.56,355.063 357.25,329.447C412.647,299.055 475.436,264.606 482.138,217.98C485.635,193.656 473.998,168.443 446.564,140.903C424.043,118.295 413.256,93.708 414.501,67.824C415.953,37.66 433.433,4.656 467.94,-33.074C498.311,-66.28 537.409,-98.626 575.22,-129.906C639.342,-182.954 699.908,-233.06 698.214,-273.532C697.618,-287.763 689.608,-300.048 673.728,-311.088L674.155,-311.704C690.242,-300.521 698.356,-288.045 698.963,-273.563C700.673,-232.719 639.968,-182.498 575.698,-129.329C502.005,-68.363 418.48,0.736 415.25,67.86C413.998,93.886 424.415,117.605 447.096,140.374C474.708,168.093 486.413,193.513 482.88,218.087C476.125,265.084 413.162,299.627 357.611,330.104C311.109,355.617 267.186,379.715 265.774,406.413C265.088,419.373 274.193,432.233 293.606,445.729C314.02,459.92 325.156,476.938 326.705,496.313C328.61,520.138 316.39,548.341 289.346,582.533C265.542,612.629 233.738,643.286 202.981,672.934C145.621,728.226 91.44,780.451 109.586,812.346L108.934,812.717Z" style="fill:rgb(182,99,167);fill-rule:nonzero;"/>
        </g>
    </g>
</svg>
